<svg width="20" height="20" viewBox="0 0 20 20" fill="none" xmlns="http://www.w3.org/2000/svg">
  <g clip-path="url(#clip0_8479_53220)">
    <rect width="20" height="20" rx="3.33333" fill="#00005B" />
    <mask id="mask0_8479_53220" style="mask-type:luminance" maskUnits="userSpaceOnUse" x="0" y="0" width="20"
      height="20">
      <path d="M20 0H0V20H20V0Z" fill="white" />
    </mask>
    <g mask="url(#mask0_8479_53220)">
      <path
        d="M8.03375 12.1502H4.93374L4.30041 14.1169C4.28374 14.1919 4.21707 14.2419 4.14207 14.2335H2.57541C2.48374 14.2335 2.45874 14.1835 2.48374 14.0835L5.1671 6.39189C5.1921 6.30854 5.2171 6.23354 5.2504 6.13354C5.28375 5.95854 5.3004 5.77524 5.3004 5.59189C5.2921 5.55024 5.3254 5.50854 5.3671 5.50024C5.3754 5.50024 5.38375 5.50024 5.3921 5.50024H7.5254C7.58375 5.50024 7.6254 5.52524 7.63375 5.56689L10.6754 14.1085C10.7004 14.2002 10.6754 14.2419 10.592 14.2419H8.8504C8.7921 14.2502 8.73375 14.2085 8.7171 14.1502L8.03375 12.1502ZM5.4171 10.4919H7.53375C7.48375 10.3169 7.4171 10.1085 7.3421 9.89189C7.26705 9.66689 7.1921 9.42524 7.1171 9.17524C7.03375 8.91689 6.95875 8.66689 6.8754 8.40854C6.7921 8.15024 6.7171 7.90854 6.6504 7.66689C6.58375 7.43354 6.5254 7.21689 6.4671 7.01689H6.4504C6.3754 7.37524 6.28375 7.73354 6.1671 8.09189C6.0421 8.49189 5.9171 8.90854 5.78375 9.32524C5.6754 9.75024 5.5421 10.1419 5.4171 10.4919Z"
        fill="#9999FF" />
      <path
        d="M15.6173 11.3838H12.9756C13.0089 11.6421 13.0923 11.9005 13.2339 12.1255C13.3839 12.3505 13.5923 12.5255 13.8423 12.6255C14.1756 12.7671 14.5423 12.8421 14.9089 12.8338C15.2006 12.8255 15.4923 12.8005 15.7756 12.7421C16.0339 12.7088 16.2839 12.6421 16.5173 12.5505C16.5589 12.5171 16.5839 12.5338 16.5839 12.6171V13.8921C16.5839 13.9255 16.5756 13.9588 16.5673 13.9921C16.5506 14.0171 16.5339 14.0338 16.5089 14.0505C16.2423 14.1671 15.9673 14.2505 15.6756 14.3005C15.2839 14.3755 14.8923 14.4088 14.4923 14.4005C13.8589 14.4005 13.3256 14.3005 12.8923 14.1088C12.4839 13.9338 12.1256 13.6588 11.8423 13.3171C11.5756 12.9921 11.3839 12.6255 11.2673 12.2255C11.1506 11.8338 11.0923 11.4255 11.0923 11.0088C11.0923 10.5588 11.1589 10.1171 11.3006 9.6838C11.4339 9.26715 11.6423 8.8838 11.9256 8.54215C12.2006 8.2088 12.5423 7.94215 12.9339 7.7505C13.3256 7.5588 13.7923 7.49215 14.3256 7.49215C14.7673 7.4838 15.2089 7.56715 15.6173 7.7505C15.9589 7.9005 16.2589 8.1255 16.4923 8.41715C16.7089 8.7005 16.8839 9.01715 16.9923 9.36715C17.1006 9.7005 17.1506 10.0421 17.1506 10.3838C17.1506 10.5838 17.1423 10.7588 17.1339 10.9171C17.1173 11.0755 17.1089 11.1921 17.1006 11.2671C17.0923 11.3255 17.0423 11.3755 16.9839 11.3755C16.9339 11.3755 16.8423 11.3838 16.7089 11.3921C16.5756 11.4088 16.4173 11.4171 16.2256 11.4171C16.0339 11.4171 15.8339 11.3838 15.6173 11.3838ZM12.9756 10.1671H14.7339C14.9506 10.1671 15.1089 10.1671 15.2089 10.1588C15.2756 10.1505 15.3423 10.1338 15.4006 10.0921V10.0088C15.4006 9.9005 15.3839 9.8005 15.3506 9.7005C15.2006 9.2338 14.7589 8.91715 14.2673 8.9338C13.8089 8.9088 13.3756 9.1505 13.1589 9.56715C13.0589 9.7588 13.0006 9.9588 12.9756 10.1671Z"
        fill="#9999FF" />
    </g>
  </g>
  <defs>
    <clipPath id="clip0_8479_53220">
      <rect width="20" height="20" rx="3.33333" fill="white" />
    </clipPath>
  </defs>
</svg>