<svg xmlns="http://www.w3.org/2000/svg" width="24" height="24" viewBox="0 0 24 24" fill="none">
  <mask id="mask0_8479_53223" style="mask-type:luminance" maskUnits="userSpaceOnUse" x="1" y="1" width="22" height="22">
    <path d="M23 1H1V23H23V1Z" fill="white" />
  </mask>
  <g mask="url(#mask0_8479_53223)">
    <mask id="mask1_8479_53223" style="mask-type:luminance" maskUnits="userSpaceOnUse" x="1" y="1" width="22"
      height="22">
      <path d="M23 1H1V23H23V1Z" fill="white" />
    </mask>
    <g mask="url(#mask1_8479_53223)">
      <path
        d="M12 23C18.0751 23 23 18.0751 23 12C23 5.92487 18.0751 1 12 1C5.92487 1 1 5.92487 1 12C1 18.0751 5.92487 23 12 23Z"
        fill="#7D2AE7" />
      <path
        d="M12 23C18.0751 23 23 18.0751 23 12C23 5.92487 18.0751 1 12 1C5.92487 1 1 5.92487 1 12C1 18.0751 5.92487 23 12 23Z"
        fill="url(#paint0_radial_8479_53223)" />
      <path
        d="M12 23C18.0751 23 23 18.0751 23 12C23 5.92487 18.0751 1 12 1C5.92487 1 1 5.92487 1 12C1 18.0751 5.92487 23 12 23Z"
        fill="url(#paint1_radial_8479_53223)" />
      <path
        d="M12 23C18.0751 23 23 18.0751 23 12C23 5.92487 18.0751 1 12 1C5.92487 1 1 5.92487 1 12C1 18.0751 5.92487 23 12 23Z"
        fill="url(#paint2_radial_8479_53223)" />
      <path
        d="M12 23C18.0751 23 23 18.0751 23 12C23 5.92487 18.0751 1 12 1C5.92487 1 1 5.92487 1 12C1 18.0751 5.92487 23 12 23Z"
        fill="url(#paint3_radial_8479_53223)" />
      <path
        d="M20.7737 12.603C20.7442 12.603 20.7179 12.6228 20.7048 12.6622C20.5264 13.17 20.2855 13.4731 20.0874 13.4731C19.9736 13.4731 19.9276 13.3463 19.9276 13.147C19.9276 12.6501 20.2264 11.595 20.3753 11.1134C20.3929 11.0637 20.4028 11.0117 20.4049 10.959C20.4049 10.8189 20.3282 10.75 20.1389 10.75C19.9495 10.75 19.7142 10.831 19.5019 11.2053C19.4274 10.8748 19.2042 10.7303 18.8922 10.7303C18.5321 10.7303 18.1841 10.9623 17.8972 11.3378C17.6105 11.7132 17.2745 11.838 17.0206 11.7767C17.2033 11.3312 17.2701 10.9974 17.2701 10.75C17.2701 10.3615 17.0786 10.1272 16.7689 10.1272C16.297 10.1272 16.0256 10.5771 16.0256 11.0499C16.0256 11.4155 16.191 11.792 16.5565 11.9748C16.251 12.6654 15.8046 13.2904 15.6349 13.2904C15.416 13.2904 15.3514 12.22 15.3646 11.4538C15.371 11.0149 15.4083 10.9919 15.4083 10.8584C15.4083 10.7829 15.358 10.7303 15.1598 10.7303C14.697 10.7303 14.5524 11.1233 14.5316 11.5742C14.5236 11.7451 14.4969 11.9148 14.4517 12.0799C14.257 12.7716 13.8585 13.2959 13.598 13.2959C13.4765 13.2959 13.4448 13.1744 13.4448 13.0168C13.4448 12.5199 13.7228 11.8971 13.7228 11.3673C13.7228 10.9766 13.552 10.7303 13.2291 10.7303C12.8504 10.7303 12.348 11.1823 11.873 12.0273C12.0295 11.3804 12.093 10.7533 11.6311 10.7533C11.5306 10.7548 11.4319 10.7803 11.3433 10.8277C11.2798 10.8606 11.2458 10.9196 11.2502 10.9853C11.294 11.676 10.6942 13.4414 10.125 13.4414C10.0211 13.4414 9.9718 13.3298 9.9718 13.1481C9.9718 12.6512 10.2684 11.5982 10.4173 11.1156C10.4354 11.063 10.4454 11.008 10.4468 10.9525C10.4468 10.8211 10.3658 10.7533 10.1809 10.7533C9.9773 10.7533 9.7573 10.831 9.54385 11.2053C9.46943 10.8748 9.24613 10.7303 8.93527 10.7303C8.42416 10.7303 7.85172 11.271 7.60108 11.977C7.26503 12.9183 6.58754 13.8268 5.67579 13.8268C4.84832 13.8268 4.41161 13.1383 4.41161 12.0514C4.41161 10.4796 5.56525 9.19688 6.42007 9.19688C6.82943 9.19688 7.02424 9.45736 7.02424 9.85688C7.02424 10.3407 6.75502 10.565 6.75502 10.7489C6.75502 10.8048 6.80094 10.8606 6.894 10.8606C7.26613 10.8606 7.70283 10.4238 7.70283 9.82839C7.70283 9.23302 7.22015 8.79626 6.36425 8.79626C4.95121 8.79626 3.52832 10.2192 3.52832 12.0415C3.52832 13.4918 4.24415 14.3663 5.48096 14.3663C6.32485 14.3663 7.06258 13.7107 7.46094 12.9434C7.50582 13.5793 7.79369 13.9099 8.23259 13.9099C8.62337 13.9099 8.93967 13.6778 9.18156 13.2685C9.27462 13.6965 9.52086 13.9066 9.84156 13.9066C10.2093 13.9066 10.5158 13.6734 10.808 13.2411C10.8037 13.5805 10.8813 13.9 11.1758 13.9C11.3148 13.9 11.4812 13.8683 11.5107 13.7469C11.8194 12.4652 12.5867 11.4188 12.8209 11.4188C12.8898 11.4188 12.9085 11.4844 12.9085 11.5644C12.9085 11.9124 12.6632 12.626 12.6632 13.0813C12.6632 13.5749 12.8723 13.9 13.3047 13.9C13.7841 13.9 14.271 13.3134 14.5962 12.4553C14.698 13.2565 14.918 13.9033 15.2606 13.9033C15.683 13.9033 16.4329 13.0156 16.887 12.0744C17.0644 12.0974 17.3326 12.0919 17.5886 11.9102C17.4803 12.1871 17.4157 12.4903 17.4157 12.7924C17.4157 13.6658 17.8316 13.9099 18.1907 13.9099C18.5813 13.9099 18.8976 13.6778 19.1395 13.2685C19.2194 13.6373 19.423 13.9055 19.7985 13.9055C20.3851 13.9055 20.8951 13.3057 20.8951 12.8131C20.8951 12.683 20.8394 12.603 20.7737 12.603ZM8.59163 13.4272C8.35409 13.4272 8.26108 13.1875 8.26108 12.8318C8.26108 12.2145 8.68354 11.1812 9.13124 11.1812C9.32605 11.1812 9.40046 11.4122 9.40046 11.6935C9.40046 12.3207 8.9988 13.4272 8.59163 13.4272ZM16.7108 11.5818C16.5696 11.4133 16.5182 11.1834 16.5182 10.9799C16.5182 10.7281 16.6101 10.5158 16.7207 10.5158C16.8312 10.5158 16.8641 10.6241 16.8641 10.7752C16.8641 11.0269 16.7743 11.3969 16.7108 11.5818ZM18.5486 13.4272C18.3121 13.4272 18.219 13.1525 18.219 12.8318C18.219 12.2352 18.6416 11.1812 19.0926 11.1812C19.2873 11.1812 19.3573 11.4089 19.3573 11.6935C19.3573 12.3207 18.9623 13.4272 18.5486 13.4272Z"
        fill="white" />
    </g>
  </g>
  <defs>
    <radialGradient id="paint0_radial_8479_53223" cx="0" cy="0" r="1" gradientUnits="userSpaceOnUse"
      gradientTransform="translate(5.24948 20.4989) rotate(-49.4156) scale(17.0151)">
      <stop stop-color="#6420FF" />
      <stop offset="1" stop-color="#6420FF" stop-opacity="0" />
    </radialGradient>
    <radialGradient id="paint1_radial_8479_53223" cx="0" cy="0" r="1" gradientUnits="userSpaceOnUse"
      gradientTransform="translate(6.82422 3.50105) rotate(54.7035) scale(19.1877)">
      <stop stop-color="#00C4CC" />
      <stop offset="1" stop-color="#00C4CC" stop-opacity="0" />
    </radialGradient>
    <radialGradient id="paint2_radial_8479_53223" cx="0" cy="0" r="1" gradientUnits="userSpaceOnUse"
      gradientTransform="translate(5.24948 20.4989) rotate(-45.1954) scale(16.8092 7.73075)">
      <stop stop-color="#6420FF" />
      <stop offset="1" stop-color="#6420FF" stop-opacity="0" />
    </radialGradient>
    <radialGradient id="paint3_radial_8479_53223" cx="0" cy="0" r="1" gradientUnits="userSpaceOnUse"
      gradientTransform="translate(9.99685 3.96421) rotate(66.5198) scale(17.3205 29.0157)">
      <stop stop-color="#00C4CC" stop-opacity="0.725916" />
      <stop offset="0.0001" stop-color="#00C4CC" />
      <stop offset="1" stop-color="#00C4CC" stop-opacity="0" />
    </radialGradient>
  </defs>
</svg>