<svg xmlns="http://www.w3.org/2000/svg" width="14" height="20" viewBox="0 0 14 20" fill="none">
  <path
    d="M7.19971 10.0004C7.19971 8.15946 8.69207 6.66699 10.533 6.66699C12.374 6.66699 13.8664 8.15946 13.8664 10.0004C13.8664 11.8413 12.374 13.3338 10.533 13.3338C8.69207 13.3338 7.19971 11.8413 7.19971 10.0004Z"
    fill="#00B6FF" />
  <path
    d="M0.533203 16.6671C0.533203 14.8262 2.0256 13.3337 3.86658 13.3337H7.19997V16.6671C7.19997 18.5081 5.70755 20.0005 3.86658 20.0005C2.0256 20.0005 0.533203 18.5081 0.533203 16.6671Z"
    fill="#24CB71" />
  <path
    d="M7.19971 0.000366211V6.66709H10.533C12.3741 6.66709 13.8664 5.17472 13.8664 3.33373C13.8664 1.49277 12.3741 0.000366211 10.533 0.000366211H7.19971Z"
    fill="#FF7237" />
  <path
    d="M0.533203 3.33337C0.533203 5.17436 2.0256 6.66672 3.86659 6.66672H7.19993V0H3.86659C2.0256 0 0.533203 1.4924 0.533203 3.33337Z"
    fill="#FF3737" />
  <path
    d="M0.533203 10.0004C0.533203 11.8413 2.0256 13.3338 3.86658 13.3338H7.19997V6.66699H3.86658C2.0256 6.66699 0.533203 8.15946 0.533203 10.0004Z"
    fill="#874FFF" />
</svg>