<svg width="164" height="32" viewBox="0 0 164 32" fill="none" xmlns="http://www.w3.org/2000/svg">
<g clip-path="url(#clip0_1603_52722)">
<path d="M128.046 11.2762H124.171V24.9273H128.046V11.2762Z" fill="white"/>
<path d="M128.046 6.77722H124.171V9.79565H128.046V6.77722Z" fill="white"/>
<path d="M43.5395 6.77722H39.4893V24.9274H51.8568V21.4476H43.5395V6.77722Z" fill="white"/>
<path d="M59.8611 10.1405C55.5501 10.1405 52.1377 13.4753 52.1377 17.6778C52.1377 21.8803 55.5501 25.2239 59.8611 25.2239C64.1721 25.2239 67.6131 21.8891 67.6131 17.6844C67.6131 13.4797 64.1984 10.1405 59.8611 10.1405ZM59.8611 21.6211C57.6913 21.6211 56.0717 19.9691 56.0717 17.6668C56.0717 15.3645 57.6913 13.7257 59.8611 13.7257C62.0309 13.7257 63.6505 15.4063 63.6505 17.6668C63.6505 19.9273 62.0309 21.6211 59.8611 21.6211Z" fill="white"/>
<path d="M83.865 21.854C83.1703 21.854 82.5632 21.4476 82.5632 20.202V14.4046H86.2583V11.2763H82.5632V7.3418H78.6883V11.2763H73.5992V7.3418H69.7243V11.2763H67.6138V14.4046H69.7243V20.2591C69.7243 23.5346 71.2871 25.2173 74.1779 25.2173C75.4832 25.2199 76.7605 24.8379 77.8511 24.1189L76.7552 21.2499C76.2065 21.6217 75.5651 21.8324 74.9032 21.8584C74.2085 21.8584 73.6014 21.452 73.6014 20.2064V14.4046H78.6905V20.2591C78.6905 23.5346 80.2509 25.2173 83.1439 25.2173C84.4492 25.2195 85.7265 24.8376 86.8173 24.1189L85.7214 21.2499C85.1712 21.6214 84.528 21.8307 83.865 21.854Z" fill="white"/>
<path d="M108.363 16.6562C107.771 12.5811 104.227 9.69886 100.333 10.2678C99.3532 10.4019 98.4104 10.7306 97.5593 11.2346C96.7083 11.7387 95.9662 12.4081 95.3767 13.2034C94.7871 13.9988 94.3619 14.9041 94.1261 15.8663C93.8902 16.8285 93.8484 17.8283 94.0031 18.8069C94.6891 23.541 98.7502 25.7335 102.928 25.1227C104.819 24.8562 106.591 24.038 108.023 22.77L106.191 20.2238C105.145 21.13 103.861 21.7143 102.491 21.9066C100.602 22.1812 98.8335 21.4672 98.0883 19.5604L108.477 18.0446C108.465 17.58 108.427 17.1165 108.363 16.6562ZM97.6588 17.0143C97.7683 15.1536 99.0264 13.7388 100.685 13.4994C101.528 13.368 102.39 13.5491 103.11 14.0089C103.829 14.4687 104.356 15.1756 104.593 15.9972L97.6588 17.0143Z" fill="white"/>
<path d="M150.427 16.6562C149.835 12.5811 146.289 9.69886 142.397 10.2678C141.417 10.4016 140.474 10.7301 139.623 11.2341C138.772 11.7381 138.03 12.4074 137.44 13.2029C136.851 13.9983 136.426 14.9037 136.19 15.866C135.954 16.8284 135.912 17.8282 136.067 18.8069C136.753 23.541 140.812 25.7335 144.992 25.1227C146.883 24.8561 148.654 24.0379 150.085 22.77L148.255 20.2238C147.209 21.13 145.923 21.7143 144.554 21.9066C142.664 22.1812 140.896 21.4672 140.151 19.5604L150.541 18.0446C150.528 17.5801 150.49 17.1167 150.427 16.6562ZM139.723 17.0143C139.833 15.1536 141.089 13.7388 142.75 13.4994C143.592 13.3674 144.453 13.5484 145.171 14.0085C145.889 14.4685 146.415 15.1758 146.649 15.9972L139.723 17.0143Z" fill="white"/>
<path d="M134.409 6.77722H130.534V24.9252H134.409V6.77722Z" fill="white"/>
<path d="M158.452 15.8521C157.121 15.5621 155.907 15.3007 155.907 14.4901C155.907 13.8815 156.747 13.4751 157.643 13.4751C159.043 13.4974 160.419 13.8448 161.663 14.4901L162.964 11.5903C161.347 10.5987 159.479 10.0953 157.584 10.1404C154.866 10.1404 151.973 11.7067 151.973 14.6636C151.973 17.447 154.316 18.3982 157.181 19.1561C158.423 19.5054 159.668 19.7075 159.668 20.5774C159.668 21.4474 158.193 21.7945 157.295 21.7945C155.658 21.8265 154.062 21.2823 152.784 20.2567L151.395 23.2466C152.205 24.0001 154.2 25.2237 157.295 25.2237C159.986 25.2237 163.6 24.0352 163.6 20.4676C163.6 17.5041 160.92 16.4364 158.452 15.8521Z" fill="white"/>
<path d="M92.2499 11.2762H88.375V24.9273H92.2499V11.2762Z" fill="white"/>
<path d="M92.2499 6.77722H88.375V9.79565H92.2499V6.77722Z" fill="white"/>
<path d="M110.013 24.9274H114.055V17.5109H120.908V14.0685H114.055V10.2504H122.381V6.77722H110.013V24.9274Z" fill="white"/>
<path d="M23.8432 0H8.07635C3.61592 0 0 3.62439 0 8.09529V23.8992C0 28.3701 3.61592 31.9945 8.07635 31.9945H23.8432C28.3037 31.9945 31.9196 28.3701 31.9196 23.8992V8.09529C31.9196 3.62439 28.3037 0 23.8432 0Z" fill="white"/>
<path d="M24.2593 7.16602C18.7647 7.16602 16.7287 11.0983 15.0915 14.2574L14.022 16.2784C12.2884 19.6286 10.9931 21.665 7.6552 21.665C7.44797 21.665 7.24276 21.706 7.05131 21.7854C6.85986 21.8649 6.68588 21.9814 6.53935 22.1283C6.39282 22.2752 6.27652 22.4496 6.19722 22.6415C6.11792 22.8334 6.07715 23.039 6.07715 23.2468C6.07773 23.6661 6.24418 24.0681 6.53999 24.3646C6.8358 24.6611 7.23686 24.8279 7.6552 24.8285C13.1519 24.8285 15.188 20.8962 16.8251 17.7371L17.8925 15.716C19.6283 12.3659 20.9235 10.3294 24.2593 10.3294C24.4667 10.3297 24.6721 10.289 24.8638 10.2097C25.0555 10.1303 25.2298 10.0139 25.3765 9.86695C25.5233 9.72005 25.6397 9.54558 25.7192 9.35353C25.7986 9.16149 25.8395 8.95563 25.8395 8.74773C25.8389 8.32803 25.6722 7.92573 25.3759 7.62916C25.0796 7.33259 24.678 7.16602 24.2593 7.16602Z" fill="#040506"/>
</g>
<defs>
<clipPath id="clip0_1603_52722">
<rect width="163.616" height="32" fill="white"/>
</clipPath>
</defs>
</svg>
