<svg xmlns="http://www.w3.org/2000/svg" width="24" height="24" viewBox="0 0 24 24" fill="none">
  <mask id="mask0_8479_53242" style="mask-type:luminance" maskUnits="userSpaceOnUse" x="0" y="7" width="24" height="10">
    <path d="M24 7.32996H0V16.6676H24V7.32996Z" fill="white" />
  </mask>
  <g mask="url(#mask0_8479_53242)">
    <path
      d="M13.7364 7.50793C13.2734 7.73944 13.0728 8.1716 13.0728 9.34459C13.0728 9.34459 13.3043 9.11308 13.6747 8.97417C13.9448 8.87385 14.1377 8.74266 14.2766 8.64234C14.6779 8.34137 14.7396 7.97867 14.7396 7.34587C14.7319 7.34587 14.0991 7.30729 13.7364 7.50793Z"
      fill="#FBBD71" />
    <path
      d="M10.9042 7.77833C10.5029 8.11016 10.4026 8.68122 10.4026 8.68122L9.10611 13.651L8.04116 9.58412C7.94084 9.15196 7.74019 8.61949 7.43923 8.24907C7.06881 7.77833 6.29711 7.74746 6.2045 7.74746C6.13505 7.74746 5.37106 7.77833 4.96977 8.24907C4.66881 8.61949 4.46817 9.15196 4.36785 9.58412L3.36463 13.651L2.06817 8.68122C2.06817 8.68122 1.96785 8.14875 1.56656 7.77833C0.933762 7.20727 0 7.34618 0 7.34618L2.46945 16.6452C2.46945 16.6452 3.27203 16.7147 3.67331 16.514C4.20579 16.2439 4.47588 16.051 4.77685 14.7777C5.07781 13.6433 5.88039 10.3404 5.94212 10.1089C5.97299 10.0086 6.04244 9.70759 6.24309 9.70759C6.44373 9.70759 6.51318 9.97769 6.54405 10.1089C6.6135 10.3404 7.40836 13.6433 7.70932 14.7777C8.04116 16.0433 8.27267 16.2439 8.81286 16.514C9.21415 16.7147 10.0167 16.6452 10.0167 16.6452L12.4707 7.34618C12.4707 7.34618 11.537 7.21499 10.9042 7.77833Z"
      fill="black" />
    <path
      d="M14.7318 8.8429C14.7318 8.8429 14.562 9.07441 14.2302 9.27505C13.9987 9.40624 13.7981 9.47569 13.5665 9.60688C13.1653 9.80753 13.0649 10.0082 13.0649 10.3091V10.4094V10.9111V11.0114V16.614C13.0649 16.614 13.6977 16.6834 14.099 16.4828C14.6315 16.2127 14.7318 15.9503 14.7318 14.8159V9.21331V8.8429Z"
      fill="black" />
    <path
      d="M20.8672 12.015L24.0003 7.37702C24.0003 7.37702 22.7039 7.1455 22.0325 7.74743C21.6003 8.11785 21.1682 8.81238 21.1682 8.81238L20.0338 10.4793C19.9643 10.5796 19.9026 10.649 19.8022 10.649C19.7019 10.649 19.6016 10.5487 19.5707 10.4793L18.4363 8.81238C18.4363 8.81238 17.9733 8.14872 17.572 7.74743C16.9084 7.1455 15.6042 7.37702 15.6042 7.37702L18.637 12.0072L15.5347 16.6375C15.5347 16.6375 16.9006 16.8072 17.572 16.2053C18.0042 15.8349 18.4055 15.2021 18.4055 15.2021L19.5399 13.5352C19.6093 13.4349 19.6711 13.3654 19.7714 13.3654C19.8717 13.3654 19.972 13.4658 20.0029 13.5352L21.1373 15.2021C21.1373 15.2021 21.5695 15.8349 21.9707 16.2053C22.6344 16.8072 23.9695 16.6375 23.9695 16.6375L20.8672 12.015Z"
      fill="black" />
  </g>
</svg>